<?xml version="1.0" encoding="UTF-8"?>
<svg xmlns="http://www.w3.org/2000/svg" viewBox="0 0 1500 400" width="1500" height="400">
  <defs>
    <!-- KOREA text gradient (navy to red) -->
    <linearGradient id="koreaGrad" x1="0%" y1="0%" x2="100%" y2="0%">
      <stop offset="0%" stop-color="#1a2a6c"/>
      <stop offset="45%" stop-color="#1a2a6c"/>
      <stop offset="65%" stop-color="#c41230"/>
      <stop offset="100%" stop-color="#c41230"/>
    </linearGradient>
    <!-- Tiger gradient -->
    <linearGradient id="tigerGrad" x1="0%" y1="0%" x2="100%" y2="100%">
      <stop offset="0%" stop-color="#1a2a6c"/>
      <stop offset="50%" stop-color="#c41230"/>
      <stop offset="100%" stop-color="#1a2a6c"/>
    </linearGradient>
    <!-- Taeguk clip path -->
    <clipPath id="taegukClip"><circle cx="0" cy="0" r="60"/></clipPath>
  </defs>

  <!-- Background -->
  <rect width="1500" height="400" fill="#FFFFFF"/>

  <!-- ===== LEFT: Official CNCG Logo (inline, unmodified paths) ===== -->
  <g transform="translate(20, 15) scale(0.74)">
    <g>
      <polygon fill="#93EAFF" points="166.4,71.8 166.6,72 229.1,72 228.9,71.8 333.6,71.8 333.6,0 166.4,0 166.4,71.8"/>
      <path fill="#0086FF" d="M177.6,113l6.7-20.6c0.5-1.6-0.3-3.2-1.9-3.7c-1.6-0.5-3.2,0.3-3.7,1.9l-7.3,22.5c0.2,0,0.5,0,0.7,0H177.6z"/>
      <path fill="#0086FF" d="M241.4,92.1c0.5-1.6-0.3-3.2-1.9-3.7c-1.6-0.5-3.2,0.3-3.7,1.9l-8.4,26l5.6,2L241.4,92.1z"/>
      <path fill="#0086FF" d="M228.3,122.9c0.1,0,0.2,0,0.3,0.1l-0.8-0.3C227.9,122.8,228.1,122.9,228.3,122.9z"/>
      <path fill="#93EAFF" d="M227.8,122.7c-1.2-0.7-1.9-2.1-1.4-3.5l1-2.9l-8.7-3.1c-0.3-0.1-0.7-0.2-1-0.2h-9.9l5.9,5.9h3.5L227.8,122.7z"/>
      <path fill="#93EAFF" d="M172.6,118.8c1.6,0.5,3.2-0.3,3.7-1.9l1.3-3.9h-5.5c-0.2,0-0.5,0-0.7,0l-0.7,2C170.2,116.6,171.1,118.3,172.6,118.8z"/>
      <path fill="#93EAFF" d="M227.8,122.7l0.8,0.3c1.5,0.3,3-0.5,3.4-2l0.9-2.8l-5.6-2l-1,2.9C225.9,120.6,226.5,122.1,227.8,122.7z"/>
      <g>
        <path fill="#FFFFFF" d="M429,167c2.7,0,71,0,71,0v0L429,167L429,167z"/>
        <path fill="#0086FF" d="M71.1,428.2c0,0,0-0.1,0-0.2H71v-95H0v167h166.4v-71.8H71.1z"/>
        <polygon fill="#0086FF" points="429,428 428.9,428 428.9,428.2 333.6,428.2 333.6,500 500,500 500,333.1 429,333.1"/>
        <polygon fill="#0086FF" points="71,167 71,72 71.1,72 71.1,71.8 166.4,71.8 166.4,0 0,0 0,167"/>
        <polygon fill="#0086FF" points="333.6,0 333.6,71.8 428.9,71.8 428.9,72 429,72 429,167 500,167 500,0"/>
        <polygon fill="#93EAFF" points="270.1,428 270.3,428.2 166.4,428.2 166.4,500 333.6,500 333.6,428"/>
        <path fill="#93EAFF" d="M429,333h71V167c0,0-68.3,0-71,0V333z"/>
        <rect x="429" y="333" fill="#93EAFF" width="71" height="0.1"/>
        <polygon fill="#FFFFFF" points="233.8,391.1 236.8,394 237.4,393.6"/>
        <path fill="#FFFFFF" d="M428.2,333.1h0.8V333L428.2,333.1C428.1,333,428.1,333.1,428.2,333.1z"/>
        <path fill="#0086FF" d="M130.4,307.6c-1.9,6,1.3,12.4,7.3,14.3c1.6,0.5,3.2-0.3,3.7-1.9c0.5-1.6-0.3-3.2-1.9-3.7c-2.9-0.9-4.4-4-3.5-6.9l3.7-11.5l-4.7-4.7L130.4,307.6z"/>
        <path fill="#0086FF" d="M143.8,276c-1.6-0.5-3.2,0.3-3.7,1.9l-5,15.3l4.7,4.7l5.9-18.2C146.2,278.2,145.3,276.5,143.8,276z"/>
        <path fill="#0086FF" d="M121.3,281.2l-4.4,13.6c-1.9,6,1.3,12.4,7.3,14.3c1.6,0.5,3.2-0.3,3.7-1.9c0.5-1.6-0.3-3.2-1.9-3.7c-2.9-0.9-4.4-4-3.5-6.9l3.9-12.1l-4.5-4.5C121.6,280.4,121.4,280.8,121.3,281.2z"/>
        <path fill="#0086FF" d="M125,279.3c-1.1-0.4-2.3,0-3.1,0.8l4.5,4.5l0.5-1.5C127.4,281.5,126.5,279.8,125,279.3z"/>
        <path fill="#0086FF" d="M145.9,209.9c0.2-0.3,0.4-0.6,0.5-0.9l7.4-22.7l-6.2,0l-6.6,20.4l-12.7,16.5l4.2,4.2L145.9,209.9z"/>
        <path fill="#0086FF" d="M105.6,275l3.3,2.4c1.3,1,1.6,2.8,0.7,4.1c-1,1.3-2.8,1.6-4.1,0.7l-1.7-1.2c-1.5,5.8,1.8,11.8,7.5,13.6c1.6,0.5,3.2-0.3,3.7-1.9c0.5-1.6-0.3-3.2-1.9-3.7c-2.9-0.9-4.4-4-3.5-6.9l3.5-10.9l-4.7-4.7L105.6,275z"/>
        <path fill="#0086FF" d="M130.8,229.7l1.7-2.2l-4.2-4.2l-0.6,0.8l2.4,1.7C131.2,226.7,131.5,228.4,130.8,229.7z"/>
        <path fill="#0086FF" d="M130.3,230.3c-1,1-2.6,1.1-3.8,0.3l-2.5-1.8l-5.6,7.3c-0.2,0.3-0.4,0.6-0.5,0.9l-9.6,29.5l4.7,4.7l10.4-31.9L130.3,230.3z"/>
        <path fill="#0086FF" d="M209.5,180.4c0.1,0,0.2,0,0.3,0C209.7,180.4,209.6,180.4,209.5,180.4z"/>
        <path fill="#0086FF" d="M211.9,181.9c0,0.1,0.1,0.2,0.1,0.2C212,182,211.9,182,211.9,181.9z"/>
        <path fill="#0086FF" d="M212.1,182.4c0,0.1,0.1,0.2,0.1,0.3C212.2,182.6,212.1,182.5,212.1,182.4z"/>
        <path fill="#0086FF" d="M209.3,186.3l-4.1,0l-16.6,51.1c-0.3,0.9-0.1,1.8,0.4,2.6l10.5,15.1l0.4,20.6l6,4.4l-0.6-26c0-0.6-0.2-1.1-0.5-1.6l-10.2-14.7l9-27.7l-1.4,0.5c-0.3,0.1-0.7,0.2-1,0.2c-1.2,0-2.4-0.8-2.8-2c-0.5-1.5,0.3-3.2,1.8-3.8l5.6-2l6.1-18.8c0-0.1,0-0.1,0-0.2C211.9,185.4,210.7,186.3,209.3,186.3z"/>
        <path fill="#0086FF" d="M212.3,183.5c0,0.1,0,0.2,0,0.3C212.3,183.7,212.3,183.6,212.3,183.5z"/>
        <path fill="#0086FF" d="M212.3,182.9c0,0.1,0,0.2,0,0.3C212.3,183.1,212.3,183,212.3,182.9z"/>
        <path fill="#0086FF" d="M210.3,180.6c0,0-0.1,0-0.1,0c0.1,0,0.2,0,0.2,0.1C210.3,180.6,210.3,180.6,210.3,180.6z"/>
        <path fill="#0086FF" d="M210.7,180.7c0.1,0,0.2,0.1,0.2,0.1C210.8,180.8,210.7,180.8,210.7,180.7z"/>
        <path fill="#0086FF" d="M211.1,181c0.1,0.1,0.1,0.1,0.2,0.2C211.3,181.1,211.2,181.1,211.1,181z"/>
        <path fill="#0086FF" d="M211.5,181.4c0.1,0.1,0.1,0.1,0.2,0.2C211.7,181.6,211.6,181.5,211.5,181.4z"/>
        <path fill="#0086FF" d="M179.8,265c-0.1,0.1-0.1,0.2-0.2,0.3C179.7,265.2,179.7,265.1,179.8,265z"/>
        <path fill="#0086FF" d="M180.6,264.1c-0.1,0.1-0.2,0.1-0.2,0.2C180.4,264.3,180.5,264.2,180.6,264.1z"/>
        <path fill="#0086FF" d="M179.5,265.5c0,0.1,0,0.1-0.1,0.1l0,0l-13,40.2c0,5.3,0,10,0,13.4l1.5,1.1l15.9-49l-3.3-2.4C179.4,268.2,179,266.7,179.5,265.5z"/>
        <path fill="#0086FF" d="M179.9,264.8c0.1-0.1,0.1-0.2,0.2-0.2C180.1,264.6,180,264.7,179.9,264.8z"/>
        <path fill="#0086FF" d="M161.9,320L161.9,320l-2.1,6.4c-0.9,2.9-4,4.4-6.9,3.5c-2.9-0.9-4.4-4-3.5-6.9l3.8-11.7l-4.7-4.7l-4.7,14.6c-1.9,6,1.3,12.4,7.3,14.3s12.4-1.3,14.3-7.3l0.6-2l-3.3-2.4C161.5,323,161.2,321.3,161.9,320z"/>
        <path fill="#0086FF" d="M181.9,263.7c0.1,0,0.2,0,0.3,0C182.1,263.6,182,263.6,181.9,263.7z"/>
        <path fill="#0086FF" d="M181.1,263.9c-0.1,0-0.2,0.1-0.3,0.1C180.9,264,181,263.9,181.1,263.9z"/>
        <path fill="#0086FF" d="M183.1,263.7c0.1,0,0.2,0.1,0.2,0.1c0,0-0.1,0-0.1-0.1C183.1,263.8,183.1,263.8,183.1,263.7z"/>
        <path fill="#0086FF" d="M183.9,264.1c-0.1-0.1-0.2-0.1-0.3-0.1C183.7,264,183.8,264.1,183.9,264.1z"/>
        <path fill="#0086FF" d="M181.6,263.7c-0.1,0-0.2,0-0.3,0.1C181.4,263.7,181.5,263.7,181.6,263.7z"/>
        <path fill="#0086FF" d="M182.8,263.7c-0.1,0-0.2,0-0.3,0C182.6,263.6,182.7,263.7,182.8,263.7z"/>
        <path fill="#0086FF" d="M161.9,320c0.1-0.1,0.1-0.2,0.2-0.3c1-1.3,2.8-1.6,4.1-0.7l0.2,0.2c0-3.4,0-8.1,0-13.4L161.9,320L161.9,320z"/>
        <path fill="#0086FF" d="M164.5,276.4c0.5-1.6-0.3-3.2-1.9-3.7c-1.6-0.5-3.2,0.3-3.7,1.9l-10.4,32l4.7,4.7L164.5,276.4z"/>
        <path fill="#93EAFF" d="M286.8,381.4c2-0.8,3.8-2.1,5.1-3.9c1-1.3,0.7-3.2-0.7-4.1c-1.3-1-3.2-0.7-4.1,0.7c-1.3,1.8-3.5,2.6-5.6,2.1c2.7,2.7,4.4,4.4,4.4,4.4L286.8,381.4z"/>
        <path fill="#93EAFF" d="M254.2,356.9c-1.3-1-3.2-0.7-4.1,0.7c-1,1.3-0.7,3.2,0.7,4.1L276,380c3.2,2.4,7.3,2.7,10.8,1.4l-0.9-0.8c0,0-1.7-1.7-4.4-4.4c-0.7-0.2-1.4-0.5-2-0.9L254.2,356.9z"/>
        <path fill="#93EAFF" d="M274.9,382.4c-1.3-1-3.2-0.7-4.1,0.7c-1.8,2.4-5.2,3-7.6,1.2l-11.6-8.4c-1.3-1-3.2-0.7-4.1,0.7c-1,1.3-0.7,3.2,0.7,4.1l11.6,8.4c5.1,3.7,12.2,2.6,15.9-2.5C276.6,385.2,276.3,383.3,274.9,382.4z"/>
        <polygon fill="#93EAFF" points="176.9,334.2 175.8,333 185.4,333 167.9,320.3 166,326.3"/>
        <path fill="#93EAFF" d="M201.6,359.9l-2.5,1.8l5.2,7.6c0.2,0.3,0.4,0.5,0.7,0.7l28.9,21l-31.7-31.7C202,359.6,201.8,359.8,201.6,359.9z"/>
        <polygon fill="#93EAFF" points="187.2,344.4 195.7,356.9 198,355.2"/>
        <path fill="#93EAFF" d="M202.1,359.4l31.7,31.7l3.5,2.6l3.3-2.4c1.3-1,3.2-0.7,4.1,0.7c1,1.3,0.7,3.2-0.7,4.1l-1.7,1.2c5,3.2,11.7,2,15.3-2.9c1-1.3,0.7-3.2-0.7-4.1c-1.3-1-3.2-0.7-4.1,0.7c-1.8,2.4-5.2,3-7.6,1.2l-36.4-26.5l-6.4-9.3C203,357.3,202.8,358.5,202.1,359.4z"/>
        <path fill="#93EAFF" d="M176.9,334.2l6.4,4.7l3.8,5.6l10.8,10.8l0.1-0.1c1.2-0.9,2.9-0.7,3.9,0.4l-14.1-20.5c-0.2-0.3-0.4-0.5-0.7-0.7l-1.8-1.3h-9.6L176.9,334.2z"/>
        <path fill="#93EAFF" d="M166.4,324.5l-4.5-4.5c-0.7,1.3-0.4,3,0.8,3.8l3.3,2.4l1.9-5.9l-1.5-1.1C166.4,322.5,166.4,324.5,166.4,324.5z"/>
        <path fill="#93EAFF" d="M162.1,319.7c-0.1,0.1-0.1,0.2-0.2,0.3l4.5,4.5c0,0,0-2,0-5.3l-0.2-0.2C164.9,318.1,163,318.4,162.1,319.7z"/>
        <path fill="#93EAFF" d="M105.6,275L88,262.3c-1.3-1-3.2-0.7-4.1,0.7c-1,1.3-0.7,3.2,0.7,4.1l19.1,13.9c0.1-0.2,0.1-0.5,0.2-0.7L105.6,275z"/>
        <path fill="#93EAFF" d="M109.5,281.5c1-1.3,0.7-3.2-0.7-4.1l-3.3-2.4l-1.7,5.2c-0.1,0.2-0.1,0.5-0.2,0.7l1.7,1.2C106.7,283.2,108.5,282.9,109.5,281.5z"/>
        <path fill="#93EAFF" d="M105.4,207.9c-1.3-1-3.2-0.7-4.1,0.7c-1,1.3-0.7,3.2,0.7,4.1l22.1,16l3.6-4.7L105.4,207.9z"/>
        <path fill="#93EAFF" d="M130.6,229.9c0.1-0.1,0.1-0.2,0.1-0.3l-0.5,0.6C130.4,230.2,130.5,230,130.6,229.9z"/>
        <path fill="#93EAFF" d="M130.3,230.3l0.5-0.6c0.8-1.3,0.4-3-0.8-3.9l-2.4-1.7l-3.6,4.7l2.5,1.8C127.7,231.4,129.3,231.3,130.3,230.3z"/>
        <path fill="#93EAFF" d="M181.4,263.8c-0.1,0-0.2,0.1-0.3,0.1C181.2,263.8,181.3,263.8,181.4,263.8z"/>
        <path fill="#93EAFF" d="M180.2,264.5c0.1-0.1,0.1-0.1,0.2-0.2C180.3,264.4,180.2,264.4,180.2,264.5z"/>
        <path fill="#93EAFF" d="M182.2,263.6c0.1,0,0.2,0,0.3,0C182.4,263.6,182.3,263.6,182.2,263.6z"/>
        <path fill="#93EAFF" d="M181.9,263.7c-0.1,0-0.2,0-0.3,0C181.7,263.7,181.8,263.7,181.9,263.7z"/>
        <path fill="#93EAFF" d="M180.8,264c-0.1,0-0.2,0.1-0.2,0.1C180.7,264.1,180.8,264,180.8,264z"/>
        <path fill="#93EAFF" d="M179.8,265c0-0.1,0.1-0.1,0.1-0.2c0,0-0.1,0.1-0.1,0.1C179.8,264.9,179.8,264.9,179.8,265z"/>
        <path fill="#93EAFF" d="M183.6,264c-0.1,0-0.2-0.1-0.3-0.1C183.4,263.9,183.5,263.9,183.6,264z"/>
        <path fill="#93EAFF" d="M179.6,265.2c0,0.1-0.1,0.2-0.1,0.3C179.6,265.4,179.6,265.3,179.6,265.2z"/>
        <path fill="#93EAFF" d="M183.1,263.7c-0.1,0-0.2-0.1-0.3-0.1C182.9,263.7,183,263.7,183.1,263.7z"/>
        <path fill="#93EAFF" d="M248.4,292.2c-0.6-0.2-1.1-0.2-1.7,0l-17.1,5.1L206,280.2l0,1.5c0,0.3,0,0.7-0.1,1c-0.4,1.2-1.5,2-2.7,2c-1.6,0-3-1.3-3-2.9l-0.1-6l-16-11.6c0,0-0.1-0.1-0.1-0.1c1.1,0.7,1.6,2.1,1.2,3.4l-1.3,3.9l43.5,31.6c0.7,0.5,1.7,0.7,2.6,0.4l17.6-5.3l19.8,6l6-4.4L248.4,292.2z"/>
        <path fill="#93EAFF" d="M200.1,281.8c0,1.6,1.4,2.9,3,2.9c1.3,0,2.4-0.9,2.7-2c0.1-0.3,0.2-0.6,0.1-1l0-1.5l-6-4.4L200.1,281.8z"/>
        <path fill="#93EAFF" d="M183.9,264.1c-0.1-0.1-0.2-0.1-0.3-0.1c-0.1,0-0.2-0.1-0.3-0.1c-0.1,0-0.2-0.1-0.2-0.1c-0.1,0-0.2-0.1-0.3-0.1c-0.1,0-0.2,0-0.3,0c-0.1,0-0.2,0-0.3,0c-0.1,0-0.2,0-0.3,0c-0.1,0-0.2,0-0.3,0c-0.1,0-0.2,0-0.3,0.1c-0.1,0-0.2,0.1-0.3,0.1c-0.1,0-0.2,0.1-0.3,0.1c-0.1,0-0.2,0.1-0.2,0.1c-0.1,0.1-0.2,0.1-0.2,0.2c-0.1,0.1-0.1,0.1-0.2,0.2c-0.1,0.1-0.2,0.2-0.2,0.2c-0.1,0.1-0.1,0.1-0.1,0.2c-0.1,0.1-0.1,0.2-0.2,0.3c0,0.1-0.1,0.2-0.1,0.3c-0.5,1.2-0.1,2.6,1,3.5l3.3,2.4l1.3-3.9C185.5,266.2,185,264.8,183.9,264.1z"/>
        <path fill="#93EAFF" d="M250.1,318.6c0-0.1,0-0.2,0-0.3C250.1,318.4,250.1,318.5,250.1,318.6z"/>
        <path fill="#93EAFF" d="M250.1,318c0-0.1,0-0.2,0-0.3C250.1,317.8,250.1,317.9,250.1,318z"/>
        <path fill="#93EAFF" d="M251,316c0.1-0.1,0.1-0.1,0.2-0.2C251.1,315.8,251,315.9,251,316z"/>
        <path fill="#93EAFF" d="M250.3,319.2c0-0.1-0.1-0.2-0.1-0.3C250.2,319,250.3,319.1,250.3,319.2z"/>
        <path fill="#93EAFF" d="M250.6,316.3C250.6,316.3,250.6,316.4,250.6,316.3c0,0,0,0,0.1-0.1C250.7,316.2,250.7,316.3,250.6,316.3z"/>
        <path fill="#93EAFF" d="M250.1,317.5c0-0.1,0-0.2,0.1-0.3C250.2,317.3,250.2,317.4,250.1,317.5z"/>
        <path fill="#93EAFF" d="M250.6,319.7c-0.1-0.1-0.1-0.2-0.2-0.3C250.5,319.5,250.5,319.6,250.6,319.7z"/>
        <path fill="#93EAFF" d="M250.3,316.9c0-0.1,0.1-0.2,0.1-0.2C250.4,316.8,250.3,316.8,250.3,316.9z"/>
        <path fill="#93EAFF" d="M251,320.1c-0.1-0.1-0.1-0.2-0.2-0.2C250.8,320,250.9,320.1,251,320.1z"/>
        <path fill="#93EAFF" d="M297.4,353.7c-1-1.3-0.7-3.2,0.7-4.1l1.7-1.3L258.1,318l-3.3,2.4c-1.1,0.8-2.6,0.7-3.6-0.1c0,0,0.1,0.1,0.1,0.1l0,0l51.7,37.5c2.4,1.8,3,5.2,1.2,7.6c-1.8,2.4-5.2,3-7.6,1.2L256.9,338c-1.3-1-3.2-0.7-4.1,0.7c-1,1.3-0.7,3.2,0.7,4.1l39.6,28.8c5.1,3.7,12.2,2.6,15.9-2.5c3.7-5.1,2.6-12.2-2.5-15.9l-1.7-1.2l-3.3,2.4C300.2,355.3,298.3,355,297.4,353.7z"/>
        <path fill="#93EAFF" d="M145.9,161.1c1.6,0,3-1.3,3-3c0-3,2.5-5.5,5.5-5.5h31.2c1.6,0,3-1.3,3-3c0-1.6-1.3-3-3-3h-31.2c-6.3,0-11.4,5.1-11.4,11.4C143,159.8,144.3,161.1,145.9,161.1z"/>
        <path fill="#93EAFF" d="M153.8,144.2c1.6,0,3-1.3,3-3c0-3,2.5-5.5,5.5-5.5h14.3c1.6,0,3-1.3,3-3c0-1.6-1.3-3-3-3h-14.3c-6.3,0-11.4,5.1-11.4,11.4C150.9,142.9,152.2,144.2,153.8,144.2z"/>
        <path fill="#93EAFF" d="M177.6,113l-1.3,3.9c-0.5,1.6-2.2,2.4-3.7,1.9c-1.6-0.5-2.4-2.2-1.9-3.7l0.7-2c-5.9,0.4-10.7,5.3-10.7,11.3c0,1.6,1.3,3,3,3c1.6,0,3-1.3,3-3c0-3,2.5-5.5,5.5-5.5h41.5l-5.9-5.9H177.6z"/>
        <path fill="#93EAFF" d="M228.5,123l23.4,8.3c0.3,0.1,0.7,0.2,1,0.2h23.9l-1.9-5.9h-21.4l-20.6-7.3L232,121C231.5,122.5,230,123.3,228.5,123z"/>
        <path fill="#93EAFF" d="M353.9,131.5h21.7c1.6,0,3-1.3,3-3c0-1.6-1.3-3-3-3H352c0.1,0.2,0.2,0.4,0.3,0.7L353.9,131.5z"/>
        <path fill="#93EAFF" d="M360.2,182.7c0,0.1,0,0.2,0,0.3l0-0.8C360.2,182.4,360.2,182.5,360.2,182.7z"/>
        <path fill="#93EAFF" d="M393.5,185.7c1.6,0,3-1.3,3-3c0-1.6-1.3-3-3-3h-27.3l-0.2,5.9H393.5z"/>
        <path fill="#93EAFF" d="M298.6,185.7c-0.1,0.1-0.2,0.1-0.2,0.2C298.5,185.9,298.6,185.8,298.6,185.7z"/>
        <path fill="#93EAFF" d="M299.8,183.4c0,0,0-0.1,0-0.1c0,0.1,0,0.2,0,0.3C299.8,183.5,299.8,183.4,299.8,183.4z"/>
        <path fill="#93EAFF" d="M299.8,183.8c0,0.1,0,0.2,0,0.3C299.7,184,299.7,183.9,299.8,183.8z"/>
        <path fill="#93EAFF" d="M294,184.3l-1.3-3.9H239c-0.9,0-1.8,0.4-2.4,1.2l-11.2,14.6l-19.5,6.8l-2.3,7.1l24.6-8.6c0.5-0.2,1-0.5,1.4-1l10.8-14.2h29.2l-0.9-1.2c-0.2-0.3-0.4-0.6-0.5-0.9c-0.4-1.2,0-2.5,1-3.3c1.3-1,3.2-0.7,4.1,0.6l3.6,4.7h19.7c0.1,0,0.1,0,0.2,0C295.7,186.4,294.5,185.6,294,184.3z"/>
        <path fill="#93EAFF" d="M297.6,186.2c-0.1,0-0.2,0.1-0.3,0.1C297.4,186.3,297.5,186.3,297.6,186.2z"/>
        <path fill="#93EAFF" d="M299.4,184.9c0,0.1-0.1,0.2-0.1,0.2C299.3,185.1,299.3,185,299.4,184.9z"/>
        <path fill="#93EAFF" d="M299.7,182.6c0,0.1,0,0.2,0.1,0.3C299.7,182.8,299.7,182.7,299.7,182.6z"/>
        <path fill="#93EAFF" d="M299.6,184.4c0,0.1-0.1,0.2-0.1,0.3C299.6,184.6,299.6,184.5,299.6,184.4z"/>
        <path fill="#93EAFF" d="M298.2,186c-0.1,0-0.2,0.1-0.3,0.1C298,186.1,298.1,186.1,298.2,186z"/>
        <path fill="#93EAFF" d="M299,185.4c-0.1,0.1-0.1,0.1-0.2,0.2C298.9,185.5,299,185.4,299,185.4z"/>
        <path fill="#93EAFF" d="M198.6,208.8c0.4,1.2,1.6,2,2.8,2c0.3,0,0.7-0.1,1-0.2l1.4-0.5l2.3-7.1l-5.6,2C198.9,205.6,198.1,207.3,198.6,208.8z"/>
        <path fill="#93EAFF" d="M212.2,183.8c0,0.1,0,0.2-0.1,0.3C212.2,184,212.2,183.9,212.2,183.8z"/>
        <path fill="#93EAFF" d="M212.2,182.7c0,0.1,0,0.2,0,0.3C212.2,182.8,212.2,182.8,212.2,182.7z"/>
        <path fill="#93EAFF" d="M211.7,181.6c0.1,0.1,0.1,0.2,0.2,0.3C211.8,181.8,211.8,181.7,211.7,181.6z"/>
        <path fill="#93EAFF" d="M211.3,181.2c0.1,0.1,0.1,0.1,0.2,0.2C211.5,181.3,211.4,181.3,211.3,181.2z"/>
        <path fill="#93EAFF" d="M212.3,183.4c0,0,0-0.1,0-0.1c0,0.1,0,0.2,0,0.3C212.3,183.5,212.3,183.4,212.3,183.4z"/>
        <path fill="#93EAFF" d="M152.5,180.6c1.6,0.5,2.4,2.2,1.9,3.7l-0.7,2l51.5,0l1.3-3.9c0.4-1.3,1.7-2.1,3-2c-0.1,0-0.1,0-0.2,0h0l-63.9,0c-3,0-5.5-2.5-5.5-5.5c0-3,2.5-5.5,5.5-5.5h49c1.6,0,3-1.3,3-3c0-1.6-1.3-3-3-3h-49c-6.3,0-11.4,5.1-11.4,11.4s5.1,11.4,11.4,11.4l2.1,0l1.3-3.9C149.3,180.9,151,180.1,152.5,180.6z"/>
        <path fill="#93EAFF" d="M210.9,180.9c0.1,0.1,0.2,0.1,0.2,0.2C211.1,181,211,180.9,210.9,180.9z"/>
        <path fill="#93EAFF" d="M212,182.1c0,0.1,0.1,0.2,0.1,0.3C212.1,182.3,212.1,182.2,212,182.1z"/>
        <path fill="#93EAFF" d="M209.8,180.5c0.1,0,0.2,0,0.3,0.1C210,180.5,209.9,180.5,209.8,180.5z"/>
        <path fill="#93EAFF" d="M210.4,180.6c0.1,0,0.2,0.1,0.3,0.1C210.6,180.7,210.5,180.6,210.4,180.6z"/>
        <path fill="#93EAFF" d="M154.4,184.3c0.5-1.6-0.3-3.2-1.9-3.7c-1.6-0.5-3.2,0.3-3.7,1.9l-1.3,3.9l6.2,0L154.4,184.3z"/>
        <path fill="#93EAFF" d="M206.5,182.5l-1.3,3.9l4.1,0c1.4,0,2.5-0.9,2.8-2.2c0-0.1,0-0.2,0.1-0.3c0-0.1,0-0.2,0-0.3c0-0.1,0-0.2,0-0.3c0-0.1,0-0.2,0-0.3c0-0.1,0-0.2,0-0.3c0-0.1-0.1-0.2-0.1-0.3c0-0.1-0.1-0.2-0.1-0.3c0-0.1-0.1-0.2-0.1-0.2c0-0.1-0.1-0.2-0.2-0.3c-0.1-0.1-0.1-0.1-0.2-0.2c-0.1-0.1-0.1-0.1-0.2-0.2c-0.1-0.1-0.1-0.1-0.2-0.2c-0.1-0.1-0.2-0.1-0.2-0.2c-0.1,0-0.2-0.1-0.2-0.1c-0.1,0-0.2-0.1-0.3-0.1c-0.1,0-0.2-0.1-0.2-0.1c-0.1,0-0.2-0.1-0.3-0.1c-0.1,0-0.2,0-0.3,0C208.2,180.4,206.9,181.2,206.5,182.5z"/>
        <path fill="#0086FF" d="M302.2,118.1c2.9-0.9,6,0.6,6.9,3.5l9.6,29.6c0.5,1.6,2.2,2.4,3.7,1.9c1.6-0.5,2.4-2.2,1.9-3.7l-9.6-29.6c-1.9-6-8.4-9.2-14.3-7.3c-1.6,0.5-2.4,2.2-1.9,3.7C299,117.8,300.6,118.6,302.2,118.1z"/>
        <path fill="#0086FF" d="M320.6,120.4c2.9-0.9,6,0.6,6.9,3.5l4.4,13.6c0.5,1.6,2.2,2.4,3.7,1.9c1.6-0.5,2.4-2.2,1.9-3.7l-4.4-13.6c-1.9-6-8.4-9.2-14.3-7.3c-1.6,0.5-2.4,2.2-1.9,3.7S319.1,120.9,320.6,120.4z"/>
        <path fill="#0086FF" d="M366,185.7h-2.9c-1.5,0-2.8-1.2-2.9-2.7l-0.5,18.5l5.8,5.8L366,185.7z"/>
        <path fill="#0086FF" d="M363.1,179.8h3.1l0.2-9.2c0-0.3,0-0.7-0.1-1l-12.4-38.1h-4.1c-1.6,0-3-1.3-3-3c0-1.6,1.3-3,3-3h2.1c-2.2-5.5-8.3-8.5-14.1-6.6c-1.6,0.5-2.4,2.2-1.9,3.7c0.5,1.6,2.2,2.4,3.7,1.9c2.9-0.9,6,0.6,6.9,3.5l13.9,42.8l-0.3,11.3C360.5,180.8,361.7,179.8,363.1,179.8z"/>
        <path fill="#0086FF" d="M359.7,208.9l7.4,22.7l5-3.7l-6.6-20.4l0-0.2l-5.8-5.8l-0.2,6.3C359.5,208.2,359.6,208.5,359.7,208.9z"/>
        <path fill="#0086FF" d="M346.9,128.5c0,1.6,1.3,3,3,3h4.1l-1.7-5.2c-0.1-0.2-0.2-0.5-0.3-0.7h-2.1C348.2,125.6,346.9,126.9,346.9,128.5z"/>
        <path fill="#0086FF" d="M363.1,185.7h2.9l0.2-5.9h-3.1c-1.5,0-2.7,1.1-2.9,2.5l0,0.8C360.3,184.5,361.6,185.7,363.1,185.7z"/>
        <path fill="#0086FF" d="M390.9,304.9l6.7,20.6c0.5,1.6,2.2,2.4,3.7,1.9c1.6-0.5,2.4-2.2,1.9-3.7l-7.3-22.5c-0.2,0.2-0.4,0.3-0.6,0.5L390.9,304.9z"/>
        <path fill="#0086FF" d="M344.1,326.7c-0.1,0-0.2,0.1-0.3,0.1l0.8-0.2C344.4,326.6,344.2,326.6,344.1,326.7z"/>
        <path fill="#0086FF" d="M351.6,359.3c0.5,1.6,2.2,2.4,3.7,1.9c1.6-0.5,2.4-2.2,1.9-3.7l-8.4-26l-5.7,1.7L351.6,359.3z"/>
        <path fill="#0086FF" d="M321.9,268.9c0.1,0.1,0.1,0.1,0.2,0.2C322.1,269,322,269,321.9,268.9z"/>
        <path fill="#0086FF" d="M325.2,269.3c0.1,0,0.2-0.1,0.3-0.1C325.4,269.2,325.3,269.2,325.2,269.3z"/>
        <path fill="#0086FF" d="M321.7,268.7c-0.1-0.1-0.1-0.2-0.2-0.2C321.6,268.5,321.7,268.6,321.7,268.7z"/>
        <path fill="#0086FF" d="M322.4,269.2c0.1,0,0.2,0.1,0.2,0.1C322.6,269.3,322.5,269.3,322.4,269.2z"/>
        <path fill="#0086FF" d="M324.9,269.4c-0.1,0-0.2,0.1-0.2,0.1c0,0,0.1,0,0.1,0C324.8,269.4,324.9,269.4,324.9,269.4z"/>
        <path fill="#0086FF" d="M323.8,269.6c-0.1,0-0.2,0-0.3,0C323.6,269.6,323.7,269.6,323.8,269.6z"/>
        <path fill="#0086FF" d="M324.1,269.6c0.1,0,0.2,0,0.3,0C324.2,269.6,324.2,269.6,324.1,269.6z"/>
        <path fill="#0086FF" d="M322.9,269.4c0.1,0,0.2,0,0.3,0.1C323.1,269.5,323,269.5,322.9,269.4z"/>
        <path fill="#0086FF" d="M285.4,207.1c0.4,0.5,0.8,0.8,1.4,1l16.8,5.9l9,27.7l0.8-1.2c0.2-0.3,0.4-0.5,0.7-0.7c1-0.7,2.4-0.8,3.4,0c1.3,0.9,1.7,2.8,0.7,4.1l-3.4,4.9l6.1,18.8c0,0.1,0,0.1,0.1,0.2c-0.5-1.2-0.1-2.7,1-3.5l3.3-2.4l-16.6-51.1c-0.3-0.9-1-1.6-1.8-1.9l-17.4-6.1l-12.5-16.4h-7.4L285.4,207.1z"/>
        <path fill="#0086FF" d="M321.2,268c0,0.1,0.1,0.2,0.2,0.3C321.3,268.2,321.3,268.1,321.2,268z"/>
        <path fill="#0086FF" d="M269.3,181.1c-1,0.8-1.4,2.1-1,3.3c0.1,0.3,0.3,0.6,0.5,0.9l0.9,1.2h7.4l-3.6-4.7C272.5,180.3,270.6,180.1,269.3,181.1z"/>
        <path fill="#0086FF" d="M279.9,121.8c-0.9-2.9,0.6-6,3.5-6.9c2.9-0.9,6,0.6,6.9,3.5l7.1,21.8l9.2,9.2l-10.6-32.8c-1.9-6-8.4-9.3-14.3-7.3c-3.7,1.2-6.4,4.2-7.4,7.7l6.2,6.2L279.9,121.8z"/>
        <path fill="#0086FF" d="M299.2,185.1c-0.1,0.1-0.1,0.2-0.2,0.2C299.1,185.3,299.2,185.2,299.2,185.1z"/>
        <path fill="#0086FF" d="M299.5,184.6c0,0.1-0.1,0.2-0.1,0.3C299.4,184.8,299.5,184.7,299.5,184.6z"/>
        <path fill="#0086FF" d="M297.8,186.2c0,0,0.1,0,0.1,0c-0.1,0-0.2,0.1-0.2,0.1C297.7,186.2,297.7,186.2,297.8,186.2z"/>
        <path fill="#0086FF" d="M297.3,186.3c-0.1,0-0.2,0-0.3,0C297.1,186.3,297.2,186.3,297.3,186.3z"/>
        <path fill="#0086FF" d="M308.9,167h-1.3C308,167.1,308.5,167.1,308.9,167z"/>
        <path fill="#0086FF" d="M292.8,180.4h4.1c1.4,0,2.5,0.9,2.8,2.2c0-0.1,0-0.1,0-0.2l0,0l-5.1-15.5h-6.2L292.8,180.4z"/>
        <path fill="#0086FF" d="M299.8,183.5c0,0.1,0,0.2,0,0.3C299.8,183.7,299.8,183.6,299.8,183.5z"/>
        <path fill="#0086FF" d="M298.4,185.9c-0.1,0-0.2,0.1-0.2,0.1C298.2,186,298.3,186,298.4,185.9z"/>
        <path fill="#0086FF" d="M298.9,185.6c-0.1,0.1-0.1,0.1-0.2,0.2C298.7,185.7,298.8,185.6,298.9,185.6z"/>
        <path fill="#0086FF" d="M299.8,182.9c0,0.1,0,0.2,0,0.3C299.8,183.2,299.8,183,299.8,182.9z"/>
        <path fill="#0086FF" d="M299.7,184.1c0,0.1-0.1,0.2-0.1,0.3C299.7,184.3,299.7,184.2,299.7,184.1z"/>
        <path fill="#0086FF" d="M274.3,123.6l0.6,2h4.1c1.6,0,3,1.3,3,3c0,1.6-1.3,3-3,3h-2.1l11.5,35.5h6.2l-14.3-43.8l-6.2-6.2C273.5,119.1,273.5,121.4,274.3,123.6z"/>
        <path fill="#0086FF" d="M305.4,165c0.3,1,1.2,1.7,2.1,2h1.3c0.1,0,0.2,0,0.3-0.1c1.6-0.5,2.4-2.2,1.9-3.7l-4.5-13.8l-9.2-9.2L305.4,165z"/>
        <path fill="#0086FF" d="M279,131.5c1.6,0,3-1.3,3-3c0-1.6-1.3-3-3-3h-4.1l1.9,5.9H279z"/>
        <path fill="#0086FF" d="M296.8,180.4h-4.1l1.3,3.9c0.4,1.3,1.7,2.1,3,2c0.1,0,0.2,0,0.3,0c0.1,0,0.2,0,0.2-0.1c0.1,0,0.2-0.1,0.3-0.1c0.1,0,0.2-0.1,0.2-0.1c0.1-0.1,0.2-0.1,0.2-0.2c0.1-0.1,0.2-0.1,0.2-0.2c0.1-0.1,0.1-0.1,0.2-0.2c0.1-0.1,0.1-0.1,0.2-0.2c0.1-0.1,0.1-0.2,0.1-0.2c0-0.1,0.1-0.2,0.1-0.3c0-0.1,0.1-0.2,0.1-0.3c0-0.1,0.1-0.2,0.1-0.3c0-0.1,0-0.2,0-0.3c0-0.1,0-0.2,0-0.3c0-0.1,0-0.2,0-0.3c0-0.1,0-0.2,0-0.3c0-0.1,0-0.2-0.1-0.3C299.4,181.4,298.2,180.4,296.8,180.4z"/>
        <path fill="#93EAFF" d="M360.5,281.6c1,1.3,2.8,1.6,4.1,0.7l7.3-5.3l-4.2-4.2l-6.5,4.7C359.9,278.4,359.6,280.3,360.5,281.6z"/>
        <path fill="#93EAFF" d="M389.9,264c5.1-3.7,6.2-10.8,2.5-15.9c-1-1.3-2.8-1.6-4.1-0.7c-1.3,1-1.6,2.8-0.7,4.1c1.8,2.4,1.2,5.9-1.2,7.6l-18.7,13.6l4.2,4.2L389.9,264z"/>
        <path fill="#93EAFF" d="M377.7,290c1,1.3,2.8,1.6,4.1,0.7l2.2-1.6l-3.5-3.5l-0.7-0.7l-1.4,1C377,286.8,376.7,288.7,377.7,290z"/>
        <path fill="#93EAFF" d="M384,289.1l9.4-6.8c5.1-3.7,6.2-10.8,2.5-15.9c-1-1.3-2.8-1.6-4.1-0.7s-1.6,2.8-0.7,4.1c1.8,2.4,1.2,5.9-1.2,7.6l-10.2,7.4l0.7,0.7L384,289.1z"/>
        <path fill="#93EAFF" d="M344.6,326.5c1.4-0.2,2.8,0.6,3.2,2l1,2.9l8.8-2.6c0.3-0.1,0.6-0.2,0.9-0.4l32.4-23.5l-1.3-3.9c-0.5-1.6,0.3-3.2,1.9-3.7c0.2-0.1,0.4-0.1,0.6-0.1l-0.3-0.3l-36.4,26.4L344.6,326.5z"/>
        <path fill="#93EAFF" d="M343.8,326.8l-23.9,7c-0.3,0.1-0.6,0.2-0.9,0.4l-19.3,14l5,3.7l17.3-12.6l21-6.2l-0.9-2.8C341.7,328.9,342.4,327.4,343.8,326.8z"/>
        <path fill="#93EAFF" d="M395.9,301.2c0,0,0.1-0.1,0.1-0.1l-0.3-0.3L395.9,301.2z"/>
        <path fill="#93EAFF" d="M395.2,299.2l0.5,1.6l0.3,0.3c4.5-3.8,5.3-10.5,1.8-15.3c-1-1.3-2.8-1.6-4.1-0.7c-1.3,1-1.6,2.8-0.7,4.1c1.8,2.4,1.2,5.9-1.2,7.6l0,0l0.3,0.3C393.5,297,394.8,297.8,395.2,299.2z"/>
        <path fill="#93EAFF" d="M298,349.5c-1.3,1-1.6,2.8-0.7,4.1c1,1.3,2.8,1.6,4.1,0.7l3.3-2.4l-5-3.7L298,349.5z"/>
        <path fill="#93EAFF" d="M392.1,297.2c-0.2,0-0.4,0.1-0.6,0.1c-1.6,0.5-2.4,2.2-1.9,3.7l1.3,3.9l4.5-3.2c0.2-0.1,0.4-0.3,0.6-0.5l-0.1-0.4L392.1,297.2z"/>
        <path fill="#93EAFF" d="M395.2,299.2c-0.4-1.4-1.8-2.2-3.1-2l3.7,3.7L395.2,299.2z"/>
        <path fill="#93EAFF" d="M344.6,326.5l-0.8,0.2c-1.4,0.6-2.1,2.2-1.6,3.6l0.9,2.8l5.7-1.7l-1-2.9C347.3,327.2,346,326.3,344.6,326.5z"/>
        <path fill="#93EAFF" d="M219.8,406.3c-1.3,1-1.6,2.8-0.7,4.1c1,1.3,2.8,1.6,4.1,0.7l17.7-12.9l-4.2-4.2L219.8,406.3z"/>
        <path fill="#93EAFF" d="M237.4,393.6l-0.6,0.4l4.2,4.2l1.4-1c-0.2-0.1-0.4-0.3-0.6-0.4L237.4,393.6z"/>
        <path fill="#93EAFF" d="M244.8,391.9c-1-1.3-2.8-1.6-4.1-0.7l-3.3,2.4l4.5,3.2c0.2,0.1,0.4,0.3,0.6,0.4l1.7-1.2C245.5,395,245.7,393.2,244.8,391.9z"/>
        <path fill="#93EAFF" d="M173.5,373c-1.3,1-1.6,2.8-0.7,4.1c1,1.3,2.8,1.6,4.1,0.7l22.1-16l-3.3-4.9L173.5,373z"/>
        <path fill="#93EAFF" d="M202.2,355.8c-0.1-0.1-0.1-0.1-0.2-0.2l0.5,0.7C202.4,356.1,202.3,356,202.2,355.8z"/>
        <path fill="#93EAFF" d="M202.1,359.4l-4.1-4.1l-2.3,1.6l3.3,4.9l2.5-1.8C201.8,359.8,202,359.6,202.1,359.4z"/>
        <path fill="#93EAFF" d="M198.1,355.2L198.1,355.2l4.1,4.2c0.7-0.9,0.8-2.1,0.3-3.1l-0.5-0.7C201,354.5,199.3,354.3,198.1,355.2z"/>
        <path fill="#93EAFF" d="M250.7,316.2c0.1-0.1,0.1-0.2,0.2-0.2C250.9,316,250.8,316.1,250.7,316.2z"/>
        <path fill="#93EAFF" d="M250.4,316.7c0-0.1,0.1-0.2,0.2-0.3C250.5,316.5,250.5,316.6,250.4,316.7z"/>
        <path fill="#93EAFF" d="M250.1,317.7c0-0.1,0-0.2,0-0.3C250.1,317.6,250.1,317.7,250.1,317.7z"/>
        <path fill="#93EAFF" d="M254.8,315.6l3.3,2.4l43.5-31.6c0.7-0.5,1.2-1.4,1.2-2.3l0.4-18.4l11.8-17l-2.3-7.1l-14.8,21.4c-0.3,0.5-0.5,1-0.5,1.6l-0.4,17.8l-23.6,17.1l1.4,0.4c0.3,0.1,0.6,0.2,0.9,0.4c1,0.7,1.5,2,1.1,3.2c-0.5,1.6-2.1,2.5-3.7,2l-5.7-1.7l-16,11.6c0,0-0.1,0.1-0.1,0.1C252.2,314.9,253.7,314.8,254.8,315.6z"/>
        <path fill="#93EAFF" d="M250.2,317.2c0-0.1,0.1-0.2,0.1-0.3C250.3,317,250.2,317.1,250.2,317.2z"/>
        <path fill="#93EAFF" d="M250.6,319.8c0,0,0.1,0.1,0.1,0.1C250.7,319.8,250.6,319.8,250.6,319.8C250.6,319.7,250.6,319.7,250.6,319.8z"/>
        <path fill="#93EAFF" d="M250.4,319.4c0-0.1-0.1-0.2-0.1-0.2C250.3,319.2,250.4,319.3,250.4,319.4z"/>
        <path fill="#93EAFF" d="M251.2,320.3c-0.1-0.1-0.2-0.1-0.2-0.2C251,320.2,251.1,320.3,251.2,320.3z"/>
        <path fill="#93EAFF" d="M250.1,318.3c0-0.1,0-0.2,0-0.3C250.1,318.1,250.1,318.2,250.1,318.3z"/>
        <path fill="#93EAFF" d="M250.2,318.9c0-0.1-0.1-0.2-0.1-0.3C250.2,318.7,250.2,318.8,250.2,318.9z"/>
        <path fill="#93EAFF" d="M276.7,303.8c0.4-1.2-0.1-2.5-1.1-3.2c-0.3-0.2-0.6-0.3-0.9-0.4l-1.4-0.4l-6,4.4l5.7,1.7C274.5,306.2,276.2,305.3,276.7,303.8z"/>
        <path fill="#93EAFF" d="M254.8,320.4l3.3-2.4l-3.3-2.4c-1.1-0.8-2.6-0.7-3.6,0.1c-0.1,0.1-0.1,0.1-0.2,0.2c-0.1,0.1-0.1,0.2-0.2,0.2c-0.1,0.1-0.1,0.1-0.2,0.2c-0.1,0.1-0.1,0.2-0.2,0.3c0,0.1-0.1,0.2-0.1,0.2c0,0.1-0.1,0.2-0.1,0.3c0,0.1-0.1,0.2-0.1,0.3c0,0.1,0,0.2,0,0.3c0,0.1,0,0.2,0,0.3c0,0.1,0,0.2,0,0.3c0,0.1,0,0.2,0,0.3c0,0.1,0,0.2,0.1,0.3c0,0.1,0.1,0.2,0.1,0.3c0,0.1,0.1,0.2,0.1,0.2c0.1,0.1,0.1,0.2,0.2,0.3c0,0.1,0.1,0.1,0.2,0.2c0.1,0.1,0.1,0.2,0.2,0.2c0.1,0.1,0.1,0.1,0.2,0.2C252.2,321.2,253.7,321.2,254.8,320.4z"/>
        <path fill="#93EAFF" d="M318.3,243.9c0.9-1.3,0.6-3.2-0.7-4.1c-1.1-0.7-2.4-0.7-3.4,0c-0.3,0.2-0.5,0.4-0.7,0.7l-0.8,1.2l2.3,7.1L318.3,243.9z"/>
        <path fill="#93EAFF" d="M324.3,269.5c0.1,0,0.2,0,0.3-0.1C324.5,269.5,324.4,269.5,324.3,269.5z"/>
        <path fill="#93EAFF" d="M321.9,268.9c-0.1-0.1-0.1-0.1-0.2-0.2C321.8,268.8,321.9,268.8,321.9,268.9z"/>
        <path fill="#93EAFF" d="M324.9,269.4c0.1,0,0.2-0.1,0.3-0.1C325.1,269.3,325,269.3,324.9,269.4z"/>
        <path fill="#93EAFF" d="M323.2,269.5c0.1,0,0.2,0,0.3,0.1C323.4,269.6,323.3,269.5,323.2,269.5z"/>
        <path fill="#93EAFF" d="M324.1,269.6c-0.1,0-0.2,0-0.3,0C323.9,269.6,324,269.6,324.1,269.6z"/>
        <path fill="#93EAFF" d="M321.5,268.5c-0.1-0.1-0.1-0.1-0.2-0.2C321.4,268.3,321.4,268.3,321.5,268.5C321.5,268.4,321.5,268.4,321.5,268.5z"/>
        <path fill="#93EAFF" d="M322.7,269.3c0.1,0,0.2,0.1,0.3,0.1C322.8,269.4,322.8,269.4,322.7,269.3z"/>
        <path fill="#93EAFF" d="M389.7,229.2c-1.7-2.3-4.1-3.8-6.7-4.4l8.6,8.6C391.2,231.9,390.6,230.5,389.7,229.2z"/>
        <path fill="#93EAFF" d="M322.2,269.1c0.1,0.1,0.2,0.1,0.2,0.2C322.3,269.2,322.3,269.1,322.2,269.1z"/>
        <path fill="#93EAFF" d="M325.4,269.1c0,0,0.1,0,0.1-0.1l0,0l22.2-16.2l-4.2-4.2l-18.2,13.2l1.3,3.9C327.1,267,326.5,268.4,325.4,269.1z"/>
        <path fill="#93EAFF" d="M321.1,267.7c0,0.1,0.1,0.2,0.1,0.3C321.2,267.9,321.1,267.8,321.1,267.7z"/>
        <path fill="#93EAFF" d="M344,269.1c-1.3,1-1.6,2.8-0.7,4.1c1,1.3,2.8,1.6,4.1,0.7l12.4-9l-4.2-4.2L344,269.1z"/>
        <path fill="#93EAFF" d="M377.2,231.5c2.4-1.8,5.9-1.2,7.6,1.2c1.8,2.4,1.2,5.9-1.2,7.6l-28,20.4l4.2,4.2l27.3-19.8c3.8-2.8,5.4-7.4,4.4-11.7l-8.6-8.6c-3.1-0.7-6.5-0.1-9.2,1.9l-1.7,1.2l1.3,3.9c0.5,1.6-0.3,3.2-1.9,3.7c-1.6,0.5-3.2-0.3-3.7-1.9l-0.7-2l-23.5,17.1l4.2,4.2L377.2,231.5z"/>
        <path fill="#93EAFF" d="M367.7,233.6c0.5,1.6,2.2,2.4,3.7,1.9c1.6-0.5,2.4-2.2,1.9-3.7l-1.3-3.9l-5,3.7L367.7,233.6z"/>
        <path fill="#93EAFF" d="M321.1,267.7c0,0.1,0.1,0.2,0.1,0.3c0,0.1,0.1,0.2,0.2,0.3c0,0.1,0.1,0.1,0.2,0.2c0.1,0.1,0.1,0.2,0.2,0.2c0.1,0.1,0.1,0.1,0.2,0.2c0.1,0.1,0.2,0.1,0.2,0.2c0.1,0.1,0.2,0.1,0.2,0.2c0.1,0,0.2,0.1,0.2,0.1c0.1,0,0.2,0.1,0.3,0.1c0.1,0,0.2,0,0.3,0.1c0.1,0,0.2,0,0.3,0.1c0.1,0,0.2,0,0.3,0c0.1,0,0.2,0,0.3,0c0.1,0,0.2,0,0.3,0c0.1,0,0.2,0,0.3-0.1c0.1,0,0.2-0.1,0.2-0.1c0.1,0,0.2-0.1,0.3-0.1c0.1,0,0.2-0.1,0.3-0.1c1.1-0.7,1.6-2.1,1.2-3.4l-1.3-3.9l-3.3,2.4C321,265,320.6,266.5,321.1,267.7z"/>
        <path fill="#93EAFF" d="M0,333h71V167c0,0-68.3,0-71,0V333z"/>
      </g>
    </g>
  </g>

  <!-- ===== CENTER: Text + Mugunghwa ===== -->


  <!-- "CLOUD NATIVE" in dark navy -->
  <text x="460" y="120" font-family="'Arial Black', 'Impact', 'Helvetica Neue', Arial, sans-serif" font-weight="900" font-size="58" fill="#1a2a6c" letter-spacing="5">CLOUD NATIVE</text>

  <!-- "COMMUNITY" in sky blue -->
  <text x="1030" y="120" font-family="'Arial Black', 'Impact', 'Helvetica Neue', Arial, sans-serif" font-weight="900" font-size="58" fill="#7ECEF4" letter-spacing="3">COMMUNITY</text>

  <!-- "K" -->
  <text x="610" y="340" font-family="'Arial Black', 'Impact', 'Helvetica Neue', Arial, sans-serif" font-weight="900" font-size="160" fill="url(#koreaGrad)" letter-spacing="12">K</text>

  <!-- Taeguk replacing O — taeguk itself IS the O, no ring -->
  <g transform="translate(810, 275)">
    <g clip-path="url(#taegukClip)">
      <path d="M-60,0 a60,60 0 0,1 120,0" fill="#c41230"/>
      <path d="M-60,0 a60,60 0 0,0 120,0" fill="#003478"/>
      <circle cx="-30" cy="0" r="30" fill="#c41230"/>
      <circle cx="30" cy="0" r="30" fill="#003478"/>
    </g>
  </g>

  <!-- "REA" -->
  <text x="882" y="340" font-family="'Arial Black', 'Impact', 'Helvetica Neue', Arial, sans-serif" font-weight="900" font-size="160" fill="url(#koreaGrad)" letter-spacing="12">REA</text>

  <!-- ===== RIGHT: Tiger (flipped, Korean colors) ===== -->
  <g transform="translate(1240, 100) scale(0.50)" opacity="0.25">
    <g transform="translate(500, 0) scale(-1, 1)">
      <g transform="scale(0.8621, 0.8621) translate(0, 580) scale(0.1, -0.1)" fill="url(#tigerGrad)">
<path d="M1919 5430 c-139 -24 -259 -150 -304 -321 -18 -65 -19 -223 -4 -285
15 -57 15 -57 -156 -164 -181 -114 -316 -176 -560 -260 -115 -40 -250 -88
-300 -107 -89 -35 -359 -165 -382 -185 -9 -7 -13 -46 -13 -126 l0 -115 68 64
c37 36 89 80 115 98 49 33 176 95 183 89 2 -2 -16 -56 -40 -121 -70 -188 -100
-324 -112 -518 -7 -103 -1 -179 14 -179 4 0 27 51 51 113 68 171 240 508 329
642 44 66 111 156 148 200 58 66 80 83 129 104 33 13 95 39 139 57 91 38 88
46 38 -97 -70 -199 -90 -383 -73 -685 6 -117 15 -223 19 -235 8 -20 12 -16 44
42 20 35 61 115 92 177 l56 112 4 188 c3 204 9 237 73 397 48 120 170 305 202
305 4 0 26 -26 49 -57 22 -32 72 -93 112 -135 70 -76 72 -79 95 -174 34 -136
43 -141 95 -51 54 94 36 170 -65 277 -166 176 -229 311 -228 485 0 110 25 182
84 249 54 61 85 76 159 76 97 0 177 -42 405 -215 177 -134 356 -221 467 -227
l53 -3 -2 34 c-2 52 -20 76 -85 112 -33 19 -72 44 -86 56 l-27 21 25 10 c65
25 441 44 454 23 3 -5 -8 -14 -25 -22 -42 -17 -159 -130 -159 -152 0 -23 18
-18 124 35 104 52 305 118 358 118 56 -1 227 -35 241 -49 7 -7 2 -14 -19 -21
-199 -76 -314 -191 -300 -299 5 -40 28 -81 45 -81 4 0 26 25 49 55 56 71 142
132 283 200 148 70 197 83 245 66 49 -18 127 -64 131 -77 2 -7 -24 -16 -68
-22 -93 -14 -182 -59 -258 -131 -63 -59 -77 -90 -67 -146 5 -25 12 -35 26 -35
10 0 22 5 26 11 16 27 121 81 220 114 115 37 140 54 180 122 35 61 47 60 154
-4 153 -93 158 -104 50 -109 -50 -2 -67 -7 -96 -31 -19 -15 -63 -48 -96 -73
-84 -62 -84 -70 -6 -70 36 0 90 -5 122 -11 55 -10 60 -9 83 13 14 13 38 49 54
80 36 72 51 80 109 61 48 -16 270 -158 270 -173 0 -5 -15 -10 -32 -12 -18 -2
-33 -7 -32 -13 0 -5 52 -45 115 -87 217 -148 239 -175 290 -362 39 -143 46
-154 244 -366 l150 -161 3 82 3 81 -98 102 c-129 133 -147 158 -173 241 -74
246 -88 277 -173 379 -99 119 -382 326 -652 477 -399 224 -471 256 -705 313
-269 66 -398 80 -720 80 -267 0 -294 -2 -433 -27 l-147 -27 -38 20 c-20 11
-80 52 -132 90 -106 78 -214 135 -275 144 -81 13 -91 14 -136 6z"/>
<path d="M1930 5123 c-32 -6 -70 -41 -70 -65 0 -15 3 -17 19 -8 52 27 122 5
199 -65 63 -57 282 -308 282 -324 0 -6 -19 -23 -42 -37 -62 -38 -106 -81 -149
-148 -56 -85 -48 -127 18 -93 59 31 373 290 373 308 0 4 -35 32 -77 62 -43 30
-145 114 -228 186 -175 153 -251 196 -325 184z"/>
<path d="M3275 4889 c-67 -25 -143 -84 -181 -140 -34 -51 -120 -247 -111 -255
3 -3 29 8 59 25 44 25 61 43 93 98 57 100 114 182 158 230 21 23 37 47 35 52
-1 5 -25 0 -53 -10z"/>
<path d="M3276 4480 c-19 -22 -57 -71 -82 -110 -38 -57 -48 -81 -52 -125 -6
-74 15 -94 133 -124 151 -38 180 -50 240 -97 62 -48 103 -62 255 -90 105 -19
106 -20 203 -144 80 -101 175 -129 341 -99 59 11 63 11 123 -20 71 -35 169
-44 179 -16 9 23 -293 320 -353 347 -55 25 -143 28 -334 14 -121 -9 -142 -6
-239 36 -100 43 -128 60 -187 108 -116 96 -173 197 -173 307 0 29 -4 53 -9 53
-5 0 -25 -18 -45 -40z m903 -550 c89 -17 176 -96 158 -143 -13 -34 -157 -49
-218 -23 -44 19 -94 71 -114 119 -15 37 -15 38 7 47 31 12 104 12 167 0z"/>
<path d="M4580 4468 c0 -7 -13 -33 -29 -57 -16 -24 -27 -49 -25 -55 2 -6 25
-24 49 -39 25 -15 48 -34 52 -44 3 -9 -11 -67 -31 -128 -34 -101 -37 -116 -27
-148 24 -70 33 -64 91 61 46 100 55 128 58 188 4 78 -4 102 -65 187 -33 44
-73 64 -73 35z"/>
<path d="M4090 4450 c-50 -9 -78 -27 -100 -63 -24 -38 -26 -94 -5 -144 8 -19
15 -39 15 -43 0 -15 -142 30 -218 69 -57 29 -72 27 -72 -9 0 -32 34 -93 66
-121 36 -30 86 -39 233 -39 80 0 164 -5 186 -10 22 -5 41 -7 44 -5 7 8 -23 37
-88 87 -78 59 -93 79 -93 124 0 69 64 103 158 84 30 -7 58 -9 61 -6 8 8 -24
54 -44 64 -25 13 -102 19 -143 12z"/>
<path d="M4301 4299 c-45 -48 -20 -154 49 -213 49 -41 53 -36 48 57 -6 85 -21
128 -56 160 -19 18 -21 18 -41 -4z"/>
<path d="M2782 4223 c-35 -21 -100 -67 -145 -102 -84 -67 -277 -253 -277 -268
0 -5 28 -21 63 -36 34 -15 75 -37 90 -50 l28 -22 -21 -49 c-28 -66 -66 -205
-81 -296 -17 -104 -14 -370 5 -525 18 -136 88 -498 109 -563 12 -35 14 -37 52
-35 22 1 114 5 205 8 134 6 182 4 255 -9 183 -34 344 -91 524 -183 46 -24 86
-41 89 -38 9 8 -162 177 -233 230 -116 86 -260 158 -380 191 -27 7 -106 19
-175 25 -69 7 -129 15 -133 19 -9 8 -16 33 -47 180 -62 290 -90 590 -71 771
15 145 39 240 90 346 23 47 41 91 41 98 0 8 -18 24 -40 36 -22 13 -40 29 -40
36 0 8 43 70 95 138 52 68 95 127 95 130 0 15 -42 1 -98 -32z"/>
<path d="M2258 4142 c-35 -27 -93 -86 -130 -132 -65 -80 -158 -241 -158 -273
0 -13 14 -14 83 -10 45 3 87 10 93 17 7 6 24 52 39 101 39 131 51 161 106 253
27 46 49 86 49 88 0 13 -26 -1 -82 -44z"/>
<path d="M2970 4061 c-34 -9 -60 -64 -60 -128 0 -41 5 -58 26 -83 24 -28 26
-36 21 -93 -3 -34 -17 -127 -31 -207 -36 -202 -36 -379 -1 -511 14 -52 34
-137 45 -189 37 -172 43 -180 148 -180 78 0 172 -16 224 -39 56 -24 145 -105
205 -187 26 -35 51 -64 55 -64 18 0 -28 184 -62 250 -28 54 -59 77 -171 126
-151 67 -160 75 -234 227 -89 185 -99 225 -92 367 9 168 57 342 141 507 20 40
36 75 36 77 0 10 -196 136 -210 135 -8 -1 -26 -4 -40 -8z"/>
<path d="M1825 3908 c-225 -269 -328 -578 -312 -933 12 -251 75 -478 217 -781
53 -113 77 -141 66 -78 -4 22 -9 129 -12 240 -7 226 6 343 52 481 38 112 82
206 94 198 6 -3 10 -49 10 -108 1 -144 14 -268 50 -447 52 -262 85 -371 174
-590 55 -132 135 -290 148 -290 5 0 50 24 101 54 140 82 273 135 437 177 101
25 433 40 453 20 8 -8 2 -14 -22 -22 -68 -24 -208 -98 -277 -147 -101 -72
-184 -151 -279 -267 -137 -167 -217 -306 -289 -502 -18 -48 -37 -88 -42 -90
-5 -1 -19 12 -31 31 -56 87 -205 258 -378 436 -104 108 -215 231 -247 275
-173 245 -303 618 -348 1000 -17 149 -20 165 -30 165 -10 0 -20 -34 -52 -177
-20 -85 -22 -128 -22 -328 -1 -217 1 -237 27 -350 38 -162 79 -279 138 -399
100 -200 180 -307 394 -526 261 -268 364 -402 490 -637 l60 -113 47 0 47 0 6
58 c23 220 38 304 94 517 24 89 79 233 127 329 77 155 150 259 256 368 237
243 540 352 761 274 88 -32 199 -98 253 -151 47 -47 57 -82 70 -222 4 -47 12
-87 20 -93 9 -8 36 -8 94 0 45 6 85 9 88 6 3 -4 -7 -42 -22 -86 -16 -44 -26
-86 -23 -94 7 -17 55 -9 171 29 119 38 125 35 76 -33 -49 -68 -45 -71 72 -47
104 22 191 52 282 97 43 22 80 37 83 34 3 -2 0 -21 -7 -41 -7 -20 -10 -38 -7
-41 10 -10 66 20 136 74 93 71 171 165 219 262 35 72 37 79 37 180 0 85 -4
111 -18 133 -15 24 -16 35 -7 84 5 31 10 78 10 105 0 70 -19 72 -77 7 -27 -29
-70 -70 -96 -91 -49 -38 -49 -38 -143 -38 l-94 0 0 98 c0 162 -30 170 -121 34
-87 -131 -125 -162 -200 -162 -49 0 -130 38 -177 83 -46 44 -113 139 -153 217
-28 55 -33 76 -34 135 0 63 3 75 33 118 66 94 183 132 271 88 76 -39 115 -102
165 -261 38 -125 82 -186 107 -149 20 31 -19 237 -61 318 -10 21 -31 52 -45
69 -29 35 -32 47 -7 37 9 -5 73 -23 142 -40 l125 -33 0 -33 c0 -19 -4 -76 -8
-126 -5 -72 -4 -93 6 -93 22 0 150 137 181 196 17 31 38 60 46 65 28 14 252
51 260 43 8 -8 1 -102 -16 -201 -5 -32 -3 -43 6 -43 28 0 106 78 158 159 31
47 60 88 64 89 4 2 8 22 8 45 0 32 -7 48 -25 66 -31 29 -31 38 0 92 24 43 25
47 25 280 l0 236 -69 16 c-86 21 -85 21 -162 -3 -75 -24 -101 -20 -165 25 -26
19 -51 32 -55 29 -9 -5 30 -101 58 -143 24 -37 94 -111 116 -123 14 -7 28 -5
53 8 30 16 39 17 81 6 59 -16 76 -32 74 -69 -1 -15 -2 -63 -2 -105 0 -70 -2
-81 -32 -125 -42 -62 -92 -95 -202 -132 -195 -65 -419 -67 -635 -6 -202 57
-218 59 -293 47 -138 -24 -239 -88 -308 -195 -69 -106 -73 -202 -15 -328 54
-119 196 -291 293 -355 52 -34 64 -38 138 -42 44 -2 154 3 244 12 199 19 422
21 439 4 34 -34 -6 -186 -72 -275 -24 -32 -57 -71 -74 -87 l-30 -28 -17 26
c-10 14 -21 26 -26 26 -5 0 -39 -19 -76 -42 -76 -47 -209 -108 -235 -108 -15
0 -18 9 -18 45 0 41 -2 45 -24 45 -13 0 -69 -16 -125 -35 -55 -19 -104 -35
-110 -35 -5 0 -9 35 -8 83 l2 82 -92 -2 c-51 -2 -93 -2 -93 0 -7 95 -23 187
-39 222 -38 87 -192 227 -331 302 -184 98 -465 163 -710 163 -165 0 -434 -42
-578 -90 -31 -11 -60 -20 -64 -20 -22 0 -129 297 -182 505 -76 295 -117 723
-95 999 6 74 9 143 7 153 -3 14 -15 8 -61 -36 -58 -55 -181 -202 -234 -281
-38 -57 -124 -229 -148 -297 -10 -29 -22 -50 -27 -47 -4 3 -8 81 -8 173 0 224
21 337 109 596 38 110 76 217 85 238 9 20 13 37 9 37 -5 0 -35 -32 -68 -72z"/>
<path d="M3458 3922 c-46 -71 -131 -252 -152 -323 -21 -68 -20 -166 0 -265 15
-68 15 -93 5 -177 -9 -72 -9 -102 -1 -112 12 -14 92 -30 205 -41 80 -7 110 2
210 65 34 22 109 62 168 90 91 44 120 64 199 140 51 49 91 92 88 95 -3 3 -31
-10 -61 -28 -97 -58 -160 -76 -323 -91 -83 -7 -166 -19 -184 -25 -67 -25 -140
11 -173 84 -39 85 -21 192 65 396 22 52 36 101 36 128 0 42 -20 105 -37 115
-5 3 -25 -20 -45 -51z"/>
<path d="M3673 3843 c-37 -7 -46 -28 -41 -102 3 -61 8 -76 43 -128 95 -139
167 -177 291 -155 106 19 247 83 234 107 -3 5 -41 10 -85 10 -159 0 -226 42
-295 182 l-45 93 -40 -2 c-22 0 -50 -3 -62 -5z"/>
<path d="M935 3444 c-136 -158 -212 -292 -263 -459 -42 -136 -55 -226 -55
-380 -1 -369 137 -750 402 -1110 58 -79 283 -303 288 -288 2 6 -13 42 -34 80
-44 77 -137 283 -176 388 -60 162 -139 472 -172 675 -25 152 -38 486 -26 652
12 164 55 374 96 471 14 34 -20 17 -60 -29z"/>
<path d="M4254 3313 c-70 -50 -178 -167 -243 -263 -125 -185 -154 -210 -244
-210 -52 0 -67 -13 -67 -60 1 -53 32 -111 85 -158 65 -57 80 -55 93 12 15 75
43 130 107 209 30 37 71 98 92 135 32 57 169 270 219 340 22 30 5 28 -42 -5z"/>
<path d="M4490 3166 c0 -16 44 -34 283 -116 163 -56 208 -66 181 -41 -24 23
-192 104 -284 135 -107 38 -180 47 -180 22z"/>
<path d="M4322 3064 c-44 -78 164 -204 427 -260 103 -22 314 -44 325 -34 4 5
-29 20 -75 35 -146 46 -350 125 -479 187 -192 92 -188 91 -198 72z"/>
<path d="M309 2869 c-117 -132 -109 -108 -108 -336 l0 -198 24 110 c27 127 72
274 121 394 19 46 33 88 32 93 -2 6 -33 -23 -69 -63z"/>
<path d="M4306 2848 c73 -146 171 -203 395 -228 85 -10 290 -2 267 10 -7 4
-43 13 -79 19 -148 25 -319 93 -493 195 -52 31 -100 56 -106 56 -6 0 2 -24 16
-52z"/>
<path d="M498 1764 c-23 -19 -89 -81 -145 -136 l-102 -101 -11 28 c-6 16 -17
62 -24 104 -13 69 -14 30 -14 -424 0 -275 3 -489 8 -475 4 14 20 70 35 125 31
113 80 230 136 325 74 126 109 149 122 81 12 -58 98 -265 139 -336 145 -247
248 -357 596 -639 l142 -116 181 0 180 0 -53 77 c-69 102 -247 280 -429 431
-217 180 -323 300 -450 512 -81 136 -179 354 -215 480 -16 55 -34 100 -41 100
-6 0 -31 -16 -55 -36z"/>
      </g>
    </g>
  </g>
</svg>
