<?xml version="1.0" standalone="no"?>
<!DOCTYPE svg PUBLIC "-//W3C//DTD SVG 20010904//EN"
 "http://www.w3.org/TR/2001/REC-SVG-20010904/DTD/svg10.dtd">
<svg version="1.0" xmlns="http://www.w3.org/2000/svg"
 width="784.000000pt" height="1168.000000pt" viewBox="0 0 784.000000 1168.000000"
 preserveAspectRatio="xMidYMid meet">
<metadata>
Created by potrace 1.16, written by Peter Selinger 2001-2019
</metadata>
<g transform="translate(0.000000,1168.000000) scale(0.100000,-0.100000)"
fill="#000000" stroke="none">
<path d="M0 5840 l0 -5840 3920 0 3920 0 0 5840 0 5840 -3920 0 -3920 0 0
-5840z m2551 1927 c19 -12 43 -40 53 -61 19 -38 19 -42 1 -134 -13 -69 -15
-96 -6 -101 12 -8 183 -22 516 -43 257 -17 1379 -17 1625 0 358 24 500 36 512
43 9 6 7 26 -5 83 -22 99 -21 132 3 171 38 61 118 82 177 45 45 -27 57 -55 92
-225 36 -171 29 -161 160 -225 251 -124 569 -177 890 -149 137 11 154 11 186
-4 65 -31 93 -113 61 -176 -28 -54 -244 -277 -341 -354 -137 -106 -304 -190
-453 -225 l-113 -27 -24 -80 c-13 -44 -31 -104 -39 -133 l-15 -53 47 -20 c61
-27 255 -83 357 -103 180 -36 375 -44 569 -25 96 10 116 10 148 -4 47 -20 78
-69 78 -122 0 -47 -7 -58 -107 -177 -185 -220 -413 -378 -633 -441 l-85 -25
-3 -521 -3 -521 132 0 c102 0 139 -4 166 -17 92 -43 98 -180 10 -233 -32 -20
-71 -20 -2580 -20 -2360 0 -2552 1 -2584 17 -97 46 -96 191 1 237 26 12 65 16
165 16 l131 0 0 523 0 522 -83 23 c-111 31 -264 109 -369 187 -93 70 -298 278
-347 352 -46 69 -39 125 24 183 26 24 30 25 133 20 189 -9 435 -5 522 9 105
15 245 50 370 91 140 47 131 37 109 116 -10 37 -28 97 -40 133 l-20 66 -110
27 c-261 63 -478 209 -725 485 -64 73 -84 102 -89 133 -9 51 18 107 65 134 31
19 40 19 195 7 276 -22 515 7 752 90 88 31 257 111 266 126 3 4 19 78 37 163
34 167 44 190 93 220 42 26 86 25 128 -3z"/>
<path d="M2441 7174 c-228 -151 -634 -274 -908 -274 -29 0 -53 -3 -53 -7 0
-17 149 -116 243 -163 156 -77 297 -102 797 -140 941 -72 2147 -64 3035 20
337 32 467 62 614 141 78 42 200 128 201 142 0 4 -22 7 -48 7 -81 0 -292 29
-392 55 -192 48 -382 126 -511 210 l-71 46 -177 -15 c-780 -68 -1838 -64
-2621 9 -51 5 -59 2 -109 -31z"/>
<path d="M2249 6249 l28 -104 179 -17 c543 -51 1306 -75 1889 -59 434 13 582
21 958 53 208 18 260 25 267 38 12 23 51 182 46 187 -2 2 -80 -3 -172 -11
-470 -43 -839 -57 -1509 -57 -727 0 -1173 18 -1652 67 l-61 7 27 -104z"/>
<path d="M2118 5876 c-251 -105 -509 -161 -815 -179 l-43 -2 60 -50 c154 -129
331 -191 635 -225 844 -93 2331 -112 3385 -45 281 19 642 51 724 66 92 16 222
57 284 88 81 41 232 148 232 164 0 2 -53 7 -117 11 -218 12 -518 81 -719 164
l-71 30 -154 -18 c-162 -20 -448 -42 -789 -62 -268 -16 -1316 -16 -1610 0
-358 20 -876 62 -930 77 -8 2 -40 -7 -72 -19z"/>
<path d="M1907 5132 c-3 -20 -6 -247 -6 -504 l-1 -468 485 0 485 0 0 465 c0
334 -3 465 -11 465 -99 0 -906 64 -936 75 -7 2 -13 -11 -16 -33z"/>
<path d="M5735 5144 c-102 -11 -688 -54 -738 -54 -16 0 -17 -38 -17 -465 l0
-465 480 0 480 0 0 500 0 500 -42 -1 c-24 -1 -97 -7 -163 -15z"/>
<path d="M3130 4618 l0 -458 119 0 119 0 4 153 c4 130 9 162 30 218 55 149
154 262 279 323 93 44 143 55 245 56 241 0 467 -177 529 -416 10 -38 15 -105
15 -196 l0 -138 124 0 124 0 -1 458 -1 457 -793 0 -793 0 0 -457z"/>
<path d="M3832 4631 c-109 -37 -175 -119 -192 -236 -5 -38 -10 -107 -10 -152
l0 -83 290 0 290 0 0 118 c0 162 -15 208 -89 283 -86 86 -178 108 -289 70z"/>
</g>
</svg>
