<?xml version="1.0" encoding="UTF-8"?>
<svg xmlns="http://www.w3.org/2000/svg" viewBox="0 0 500 500" width="500" height="500">
  <defs>
    <linearGradient id="tigerGrad" x1="0%" y1="0%" x2="100%" y2="100%">
      <stop offset="0%" stop-color="#003478"/>
      <stop offset="40%" stop-color="#0086FF"/>
      <stop offset="70%" stop-color="#93EAFF"/>
      <stop offset="100%" stop-color="#003478"/>
    </linearGradient>
  </defs>
  <!-- Horizontal flip: translate(500,0) scale(-1,1) -->
  <g transform="translate(500, 0) scale(-1, 1)">
    <g transform="scale(0.8621, 0.8621) translate(0, 580) scale(0.1, -0.1)" fill="url(#tigerGrad)">
<path d="M1919 5430 c-139 -24 -259 -150 -304 -321 -18 -65 -19 -223 -4 -285
15 -57 15 -57 -156 -164 -181 -114 -316 -176 -560 -260 -115 -40 -250 -88
-300 -107 -89 -35 -359 -165 -382 -185 -9 -7 -13 -46 -13 -126 l0 -115 68 64
c37 36 89 80 115 98 49 33 176 95 183 89 2 -2 -16 -56 -40 -121 -70 -188 -100
-324 -112 -518 -7 -103 -1 -179 14 -179 4 0 27 51 51 113 68 171 240 508 329
642 44 66 111 156 148 200 58 66 80 83 129 104 33 13 95 39 139 57 91 38 88
46 38 -97 -70 -199 -90 -383 -73 -685 6 -117 15 -223 19 -235 8 -20 12 -16 44
42 20 35 61 115 92 177 l56 112 4 188 c3 204 9 237 73 397 48 120 170 305 202
305 4 0 26 -26 49 -57 22 -32 72 -93 112 -135 70 -76 72 -79 95 -174 34 -136
43 -141 95 -51 54 94 36 170 -65 277 -166 176 -229 311 -228 485 0 110 25 182
84 249 54 61 85 76 159 76 97 0 177 -42 405 -215 177 -134 356 -221 467 -227
l53 -3 -2 34 c-2 52 -20 76 -85 112 -33 19 -72 44 -86 56 l-27 21 25 10 c65
25 441 44 454 23 3 -5 -8 -14 -25 -22 -42 -17 -159 -130 -159 -152 0 -23 18
-18 124 35 104 52 305 118 358 118 56 -1 227 -35 241 -49 7 -7 2 -14 -19 -21
-199 -76 -314 -191 -300 -299 5 -40 28 -81 45 -81 4 0 26 25 49 55 56 71 142
132 283 200 148 70 197 83 245 66 49 -18 127 -64 131 -77 2 -7 -24 -16 -68
-22 -93 -14 -182 -59 -258 -131 -63 -59 -77 -90 -67 -146 5 -25 12 -35 26 -35
10 0 22 5 26 11 16 27 121 81 220 114 115 37 140 54 180 122 35 61 47 60 154
-4 153 -93 158 -104 50 -109 -50 -2 -67 -7 -96 -31 -19 -15 -63 -48 -96 -73
-84 -62 -84 -70 -6 -70 36 0 90 -5 122 -11 55 -10 60 -9 83 13 14 13 38 49 54
80 36 72 51 80 109 61 48 -16 270 -158 270 -173 0 -5 -15 -10 -32 -12 -18 -2
-33 -7 -32 -13 0 -5 52 -45 115 -87 217 -148 239 -175 290 -362 39 -143 46
-154 244 -366 l150 -161 3 82 3 81 -98 102 c-129 133 -147 158 -173 241 -74
246 -88 277 -173 379 -99 119 -382 326 -652 477 -399 224 -471 256 -705 313
-269 66 -398 80 -720 80 -267 0 -294 -2 -433 -27 l-147 -27 -38 20 c-20 11
-80 52 -132 90 -106 78 -214 135 -275 144 -81 13 -91 14 -136 6z"/>
<path d="M1930 5123 c-32 -6 -70 -41 -70 -65 0 -15 3 -17 19 -8 52 27 122 5
199 -65 63 -57 282 -308 282 -324 0 -6 -19 -23 -42 -37 -62 -38 -106 -81 -149
-148 -56 -85 -48 -127 18 -93 59 31 373 290 373 308 0 4 -35 32 -77 62 -43 30
-145 114 -228 186 -175 153 -251 196 -325 184z"/>
<path d="M3275 4889 c-67 -25 -143 -84 -181 -140 -34 -51 -120 -247 -111 -255
3 -3 29 8 59 25 44 25 61 43 93 98 57 100 114 182 158 230 21 23 37 47 35 52
-1 5 -25 0 -53 -10z"/>
<path d="M3276 4480 c-19 -22 -57 -71 -82 -110 -38 -57 -48 -81 -52 -125 -6
-74 15 -94 133 -124 151 -38 180 -50 240 -97 62 -48 103 -62 255 -90 105 -19
106 -20 203 -144 80 -101 175 -129 341 -99 59 11 63 11 123 -20 71 -35 169
-44 179 -16 9 23 -293 320 -353 347 -55 25 -143 28 -334 14 -121 -9 -142 -6
-239 36 -100 43 -128 60 -187 108 -116 96 -173 197 -173 307 0 29 -4 53 -9 53
-5 0 -25 -18 -45 -40z m903 -550 c89 -17 176 -96 158 -143 -13 -34 -157 -49
-218 -23 -44 19 -94 71 -114 119 -15 37 -15 38 7 47 31 12 104 12 167 0z"/>
<path d="M4580 4468 c0 -7 -13 -33 -29 -57 -16 -24 -27 -49 -25 -55 2 -6 25
-24 49 -39 25 -15 48 -34 52 -44 3 -9 -11 -67 -31 -128 -34 -101 -37 -116 -27
-148 24 -70 33 -64 91 61 46 100 55 128 58 188 4 78 -4 102 -65 187 -33 44
-73 64 -73 35z"/>
<path d="M4090 4450 c-50 -9 -78 -27 -100 -63 -24 -38 -26 -94 -5 -144 8 -19
15 -39 15 -43 0 -15 -142 30 -218 69 -57 29 -72 27 -72 -9 0 -32 34 -93 66
-121 36 -30 86 -39 233 -39 80 0 164 -5 186 -10 22 -5 41 -7 44 -5 7 8 -23 37
-88 87 -78 59 -93 79 -93 124 0 69 64 103 158 84 30 -7 58 -9 61 -6 8 8 -24
54 -44 64 -25 13 -102 19 -143 12z"/>
<path d="M4301 4299 c-45 -48 -20 -154 49 -213 49 -41 53 -36 48 57 -6 85 -21
128 -56 160 -19 18 -21 18 -41 -4z"/>
<path d="M2782 4223 c-35 -21 -100 -67 -145 -102 -84 -67 -277 -253 -277 -268
0 -5 28 -21 63 -36 34 -15 75 -37 90 -50 l28 -22 -21 -49 c-28 -66 -66 -205
-81 -296 -17 -104 -14 -370 5 -525 18 -136 88 -498 109 -563 12 -35 14 -37 52
-35 22 1 114 5 205 8 134 6 182 4 255 -9 183 -34 344 -91 524 -183 46 -24 86
-41 89 -38 9 8 -162 177 -233 230 -116 86 -260 158 -380 191 -27 7 -106 19
-175 25 -69 7 -129 15 -133 19 -9 8 -16 33 -47 180 -62 290 -90 590 -71 771
15 145 39 240 90 346 23 47 41 91 41 98 0 8 -18 24 -40 36 -22 13 -40 29 -40
36 0 8 43 70 95 138 52 68 95 127 95 130 0 15 -42 1 -98 -32z"/>
<path d="M2258 4142 c-35 -27 -93 -86 -130 -132 -65 -80 -158 -241 -158 -273
0 -13 14 -14 83 -10 45 3 87 10 93 17 7 6 24 52 39 101 39 131 51 161 106 253
27 46 49 86 49 88 0 13 -26 -1 -82 -44z"/>
<path d="M2970 4061 c-34 -9 -60 -64 -60 -128 0 -41 5 -58 26 -83 24 -28 26
-36 21 -93 -3 -34 -17 -127 -31 -207 -36 -202 -36 -379 -1 -511 14 -52 34
-137 45 -189 37 -172 43 -180 148 -180 78 0 172 -16 224 -39 56 -24 145 -105
205 -187 26 -35 51 -64 55 -64 18 0 -28 184 -62 250 -28 54 -59 77 -171 126
-151 67 -160 75 -234 227 -89 185 -99 225 -92 367 9 168 57 342 141 507 20 40
36 75 36 77 0 10 -196 136 -210 135 -8 -1 -26 -4 -40 -8z"/>
<path d="M1825 3908 c-225 -269 -328 -578 -312 -933 12 -251 75 -478 217 -781
53 -113 77 -141 66 -78 -4 22 -9 129 -12 240 -7 226 6 343 52 481 38 112 82
206 94 198 6 -3 10 -49 10 -108 1 -144 14 -268 50 -447 52 -262 85 -371 174
-590 55 -132 135 -290 148 -290 5 0 50 24 101 54 140 82 273 135 437 177 101
25 433 40 453 20 8 -8 2 -14 -22 -22 -68 -24 -208 -98 -277 -147 -101 -72
-184 -151 -279 -267 -137 -167 -217 -306 -289 -502 -18 -48 -37 -88 -42 -90
-5 -1 -19 12 -31 31 -56 87 -205 258 -378 436 -104 108 -215 231 -247 275
-173 245 -303 618 -348 1000 -17 149 -20 165 -30 165 -10 0 -20 -34 -52 -177
-20 -85 -22 -128 -22 -328 -1 -217 1 -237 27 -350 38 -162 79 -279 138 -399
100 -200 180 -307 394 -526 261 -268 364 -402 490 -637 l60 -113 47 0 47 0 6
58 c23 220 38 304 94 517 24 89 79 233 127 329 77 155 150 259 256 368 237
243 540 352 761 274 88 -32 199 -98 253 -151 47 -47 57 -82 70 -222 4 -47 12
-87 20 -93 9 -8 36 -8 94 0 45 6 85 9 88 6 3 -4 -7 -42 -22 -86 -16 -44 -26
-86 -23 -94 7 -17 55 -9 171 29 119 38 125 35 76 -33 -49 -68 -45 -71 72 -47
104 22 191 52 282 97 43 22 80 37 83 34 3 -2 0 -21 -7 -41 -7 -20 -10 -38 -7
-41 10 -10 66 20 136 74 93 71 171 165 219 262 35 72 37 79 37 180 0 85 -4
111 -18 133 -15 24 -16 35 -7 84 5 31 10 78 10 105 0 70 -19 72 -77 7 -27 -29
-70 -70 -96 -91 -49 -38 -49 -38 -143 -38 l-94 0 0 98 c0 162 -30 170 -121 34
-87 -131 -125 -162 -200 -162 -49 0 -130 38 -177 83 -46 44 -113 139 -153 217
-28 55 -33 76 -34 135 0 63 3 75 33 118 66 94 183 132 271 88 76 -39 115 -102
165 -261 38 -125 82 -186 107 -149 20 31 -19 237 -61 318 -10 21 -31 52 -45
69 -29 35 -32 47 -7 37 9 -5 73 -23 142 -40 l125 -33 0 -33 c0 -19 -4 -76 -8
-126 -5 -72 -4 -93 6 -93 22 0 150 137 181 196 17 31 38 60 46 65 28 14 252
51 260 43 8 -8 1 -102 -16 -201 -5 -32 -3 -43 6 -43 28 0 106 78 158 159 31
47 60 88 64 89 4 2 8 22 8 45 0 32 -7 48 -25 66 -31 29 -31 38 0 92 24 43 25
47 25 280 l0 236 -69 16 c-86 21 -85 21 -162 -3 -75 -24 -101 -20 -165 25 -26
19 -51 32 -55 29 -9 -5 30 -101 58 -143 24 -37 94 -111 116 -123 14 -7 28 -5
53 8 30 16 39 17 81 6 59 -16 76 -32 74 -69 -1 -15 -2 -63 -2 -105 0 -70 -2
-81 -32 -125 -42 -62 -92 -95 -202 -132 -195 -65 -419 -67 -635 -6 -202 57
-218 59 -293 47 -138 -24 -239 -88 -308 -195 -69 -106 -73 -202 -15 -328 54
-119 196 -291 293 -355 52 -34 64 -38 138 -42 44 -2 154 3 244 12 199 19 422
21 439 4 34 -34 -6 -186 -72 -275 -24 -32 -57 -71 -74 -87 l-30 -28 -17 26
c-10 14 -21 26 -26 26 -5 0 -39 -19 -76 -42 -76 -47 -209 -108 -235 -108 -15
0 -18 9 -18 45 0 41 -2 45 -24 45 -13 0 -69 -16 -125 -35 -55 -19 -104 -35
-110 -35 -5 0 -9 35 -8 83 l2 82 -92 -2 c-51 -2 -93 -2 -93 0 -7 95 -23 187
-39 222 -38 87 -192 227 -331 302 -184 98 -465 163 -710 163 -165 0 -434 -42
-578 -90 -31 -11 -60 -20 -64 -20 -22 0 -129 297 -182 505 -76 295 -117 723
-95 999 6 74 9 143 7 153 -3 14 -15 8 -61 -36 -58 -55 -181 -202 -234 -281
-38 -57 -124 -229 -148 -297 -10 -29 -22 -50 -27 -47 -4 3 -8 81 -8 173 0 224
21 337 109 596 38 110 76 217 85 238 9 20 13 37 9 37 -5 0 -35 -32 -68 -72z"/>
<path d="M3458 3922 c-46 -71 -131 -252 -152 -323 -21 -68 -20 -166 0 -265 15
-68 15 -93 5 -177 -9 -72 -9 -102 -1 -112 12 -14 92 -30 205 -41 80 -7 110 2
210 65 34 22 109 62 168 90 91 44 120 64 199 140 51 49 91 92 88 95 -3 3 -31
-10 -61 -28 -97 -58 -160 -76 -323 -91 -83 -7 -166 -19 -184 -25 -67 -25 -140
11 -173 84 -39 85 -21 192 65 396 22 52 36 101 36 128 0 42 -20 105 -37 115
-5 3 -25 -20 -45 -51z"/>
<path d="M3673 3843 c-37 -7 -46 -28 -41 -102 3 -61 8 -76 43 -128 95 -139
167 -177 291 -155 106 19 247 83 234 107 -3 5 -41 10 -85 10 -159 0 -226 42
-295 182 l-45 93 -40 -2 c-22 0 -50 -3 -62 -5z"/>
<path d="M935 3444 c-136 -158 -212 -292 -263 -459 -42 -136 -55 -226 -55
-380 -1 -369 137 -750 402 -1110 58 -79 283 -303 288 -288 2 6 -13 42 -34 80
-44 77 -137 283 -176 388 -60 162 -139 472 -172 675 -25 152 -38 486 -26 652
12 164 55 374 96 471 14 34 -20 17 -60 -29z"/>
<path d="M4254 3313 c-70 -50 -178 -167 -243 -263 -125 -185 -154 -210 -244
-210 -52 0 -67 -13 -67 -60 1 -53 32 -111 85 -158 65 -57 80 -55 93 12 15 75
43 130 107 209 30 37 71 98 92 135 32 57 169 270 219 340 22 30 5 28 -42 -5z"/>
<path d="M4490 3166 c0 -16 44 -34 283 -116 163 -56 208 -66 181 -41 -24 23
-192 104 -284 135 -107 38 -180 47 -180 22z"/>
<path d="M4322 3064 c-44 -78 164 -204 427 -260 103 -22 314 -44 325 -34 4 5
-29 20 -75 35 -146 46 -350 125 -479 187 -192 92 -188 91 -198 72z"/>
<path d="M309 2869 c-117 -132 -109 -108 -108 -336 l0 -198 24 110 c27 127 72
274 121 394 19 46 33 88 32 93 -2 6 -33 -23 -69 -63z"/>
<path d="M4306 2848 c73 -146 171 -203 395 -228 85 -10 290 -2 267 10 -7 4
-43 13 -79 19 -148 25 -319 93 -493 195 -52 31 -100 56 -106 56 -6 0 2 -24 16
-52z"/>
<path d="M498 1764 c-23 -19 -89 -81 -145 -136 l-102 -101 -11 28 c-6 16 -17
62 -24 104 -13 69 -14 30 -14 -424 0 -275 3 -489 8 -475 4 14 20 70 35 125 31
113 80 230 136 325 74 126 109 149 122 81 12 -58 98 -265 139 -336 145 -247
248 -357 596 -639 l142 -116 181 0 180 0 -53 77 c-69 102 -247 280 -429 431
-217 180 -323 300 -450 512 -81 136 -179 354 -215 480 -16 55 -34 100 -41 100
-6 0 -31 -16 -55 -36z"/>
    </g>
  </g>
</svg>
